<svg xmlns="http://www.w3.org/2000/svg" viewBox="0 0 144 72"><defs><style>.cls-1{fill:#167c80;}</style></defs><title>lineage_logo_mark_ltrbox_teal_144x72</title><g id="mark_-_letterbox" data-name="mark - letterbox"><path class="cls-1" d="M112,36a10,10,0,0,0-7.78,3.72l-.38-.15A73.82,73.82,0,0,0,92,36s0,0,0,0a20,20,0,0,0-40,0v0l-.43.09a73.47,73.47,0,0,0-11.42,3.44l-.38.15a10.1,10.1,0,1,0,1.84,3.57h0A69.34,69.34,0,0,1,52.41,40a20,20,0,0,0,39.18,0,69.32,69.32,0,0,1,10.78,3.24h0A10,10,0,1,0,112,36ZM32,52a6,6,0,1,1,6-6A6,6,0,0,1,32,52Zm40,0A16,16,0,1,1,88,36,16,16,0,0,1,72,52Zm40,0a6,6,0,1,1,6-6A6,6,0,0,1,112,52ZM80,36a8,8,0,1,1-8-8A8,8,0,0,1,80,36Z"/></g></svg>