<svg width="300" height="300" viewBox="0 0 300 300" fill="none" xmlns="http://www.w3.org/2000/svg">
<rect width="300" height="300" fill="black"/>
<path fill-rule="evenodd" clip-rule="evenodd" d="M0 150C0 232.843 67.1573 300 150 300C232.843 300 300 232.843 300 150C300 67.1573 232.843 0 150 0C67.1573 0 0 67.1573 0 150ZM150 0.000214268L169.738 31.6154L169.771 31.6209L198.705 8.12763L207.106 44.433L207.143 44.4527L242.132 31.6291L238.287 68.7251L238.288 68.7264L275.575 67.958L259.91 101.76L259.931 101.809L295.41 113.177L269.596 140.084L269.597 140.096L299.487 162.387L266.362 179.441L266.349 179.49L287.366 210.255L250.478 215.631L250.465 215.652L260.358 251.593L223.712 244.698L223.705 244.704L221.392 281.921L189.001 263.52L188.947 263.538L174.689 297.954L150 270L125.31 297.954L111.052 263.538L110.998 263.52L78.6075 281.921L76.2945 244.704L76.2875 244.698L39.6411 251.593L49.535 215.651L49.5221 215.631L12.6336 210.255L33.6504 179.49L33.6382 179.441L0.511969 162.387L30.4029 140.096L30.4038 140.085L4.58961 113.177L40.0687 101.809L40.09 101.76L24.4247 67.958L61.7121 68.7264L61.7127 68.7257L57.8678 31.6291L92.8571 44.4528L92.8929 44.4334L101.295 8.12763L130.229 31.621L130.262 31.6156L150 0.000214268Z" fill="white"/>
<path d="M138.398 168.57C138.398 162.008 139.195 156.781 140.789 152.891C142.383 149 145.289 145.18 149.508 141.43C153.773 137.633 156.609 134.562 158.016 132.219C159.422 129.828 160.125 127.32 160.125 124.695C160.125 116.773 156.469 112.812 149.156 112.812C145.688 112.812 142.898 113.891 140.789 116.047C138.727 118.156 137.648 121.086 137.555 124.836H117.164C117.258 115.883 120.141 108.875 125.812 103.812C131.531 98.75 139.312 96.2188 149.156 96.2188C159.094 96.2188 166.805 98.6328 172.289 103.461C177.773 108.242 180.516 115.016 180.516 123.781C180.516 127.766 179.625 131.539 177.844 135.102C176.062 138.617 172.945 142.531 168.492 146.844L162.797 152.258C159.234 155.68 157.195 159.688 156.68 164.281L156.398 168.57H138.398ZM136.359 190.156C136.359 187.016 137.414 184.438 139.523 182.422C141.68 180.359 144.422 179.328 147.75 179.328C151.078 179.328 153.797 180.359 155.906 182.422C158.062 184.438 159.141 187.016 159.141 190.156C159.141 193.25 158.086 195.805 155.977 197.82C153.914 199.836 151.172 200.844 147.75 200.844C144.328 200.844 141.562 199.836 139.453 197.82C137.391 195.805 136.359 193.25 136.359 190.156Z" fill="white"/>
</svg>
