<svg width="300" height="300" viewBox="0 0 300 300" fill="none" xmlns="http://www.w3.org/2000/svg">
<rect width="300" height="300" fill="black"/>
<circle cx="150" cy="150" r="150" fill="#181818"/>
<path d="M150 20C150 8.9543 158.994 -0.13721 169.942 1.33122C196.455 4.88752 221.666 15.4912 242.864 32.2025C269.324 53.0615 287.99 82.2213 295.855 114.983C303.721 147.745 300.327 182.201 286.221 212.799C272.116 243.397 248.119 268.355 218.099 283.651C188.078 298.947 153.782 303.691 120.736 297.118C87.691 290.545 57.8208 273.037 35.9391 247.417C14.0573 221.797 1.43841 189.556 0.115643 155.889C-0.944093 128.917 5.29598 102.288 18.0031 78.7477C23.25 69.0277 35.8917 67.0954 44.8278 73.5879L118.244 126.928C131.465 136.533 150 127.089 150 110.748L150 20Z" fill="#167c80"/>
<circle cx="150" cy="150" r="128" fill="black"/>
<path d="M162.73 230.297L149.298 254.672C149.006 255.202 148.199 254.959 148.247 254.357L149.72 236.199L137.762 236.199C137.336 236.199 137.064 235.742 137.27 235.367L150.703 210.992C150.995 210.462 151.802 210.705 151.753 211.307L150.281 229.465L162.238 229.465C162.665 229.465 162.935 229.922 162.73 230.297Z" fill="white"/>
</svg>
