<svg width="300" height="300" viewBox="0 0 300 300" fill="none" xmlns="http://www.w3.org/2000/svg">
<rect width="300" height="300" fill="black"/>
<path d="M150 20C150 8.9543 158.994 -0.137173 169.941 1.33127C187.911 3.74157 205.298 9.391 221.252 18.0033C230.972 23.2501 232.905 35.8917 226.412 44.8278L186.18 100.202C174.792 115.876 150 107.821 150 88.4464L150 20Z" fill="white"/>
<circle cx="150" cy="150" r="149" stroke="white" stroke-width="2"/>
<circle cx="150" cy="150" r="129" fill="black" stroke="white" stroke-width="2"/>
<path d="M162.73 220.297L149.298 244.672C149.006 245.202 148.199 244.959 148.247 244.357L149.72 226.199L137.762 226.199C137.336 226.199 137.064 225.742 137.27 225.367L150.703 200.992C150.995 200.462 151.802 200.705 151.753 201.307L150.281 219.465L162.238 219.465C162.665 219.465 162.935 219.922 162.73 220.297Z" fill="white"/>
</svg>
