<svg width="300" height="300" viewBox="0 0 300 300" fill="none" xmlns="http://www.w3.org/2000/svg">
<rect width="300" height="300" fill="black"/>
<path d="M150 20C150 8.9543 158.994 -0.137283 169.941 1.33108C198.42 5.15078 225.355 17.0964 247.417 35.9391C274.575 59.1345 292.566 91.2591 298.153 126.535C303.74 161.811 296.557 197.922 277.896 228.375C262.737 253.113 240.811 272.797 214.906 285.23C204.948 290.01 193.585 284.142 190.172 273.637L150.979 153.013C150.33 151.017 150 148.931 150 146.832L150 20Z" fill="white"/>
<circle cx="150" cy="150" r="128" fill="black"/>
<path d="M173.183 145.483L149.249 188.918C148.729 189.862 147.29 189.429 147.377 188.355L150 156H128.693C127.932 156 127.45 155.184 127.817 154.517L151.751 111.082C152.271 110.138 153.71 110.571 153.623 111.645L151 144H172.307C173.068 144 173.55 144.816 173.183 145.483Z" fill="white"/>
</svg>
