<svg width="300" height="300" viewBox="0 0 300 300" fill="none" xmlns="http://www.w3.org/2000/svg">
<rect width="300" height="300" fill="black"/>
<circle cx="150" cy="150" r="150" fill="#181818"/>
<path d="M150 20C150 8.9543 158.994 -0.137109 169.941 1.33134C190.581 4.09984 210.494 11.1469 228.375 22.104C251.962 36.558 271.092 57.2532 283.651 81.9014C296.21 106.55 301.708 134.191 299.538 161.769C297.892 182.675 291.889 202.927 281.997 221.252C276.75 230.972 264.108 232.905 255.172 226.412L158.244 155.99C153.065 152.227 150 146.212 150 139.809L150 20Z" fill="#167c80"/>
<circle cx="150" cy="150" r="128" fill="black"/>
<path d="M162.73 230.297L149.298 254.672C149.006 255.202 148.199 254.959 148.247 254.357L149.72 236.199L137.762 236.199C137.336 236.199 137.064 235.742 137.27 235.367L150.703 210.992C150.995 210.462 151.802 210.705 151.753 211.307L150.281 229.465L162.238 229.465C162.665 229.465 162.935 229.922 162.73 230.297Z" fill="white"/>
</svg>
