<svg width="300" height="300" viewBox="0 0 300 300" fill="none" xmlns="http://www.w3.org/2000/svg">
<rect width="300" height="300" fill="black"/>
<path d="M150 20C150 8.9543 158.994 -0.137312 169.942 1.33104C200.389 5.41475 229.026 18.7812 251.82 39.8516C279.537 65.4731 296.576 100.602 299.538 138.231C302.499 175.86 291.165 213.222 267.798 242.864C244.43 272.506 210.746 292.249 173.465 298.153C136.185 304.058 98.0484 295.691 66.6644 274.72C35.2804 253.75 12.9559 221.719 4.1445 185.017C-4.66693 148.314 0.682508 109.639 19.1256 76.7068C34.2927 49.6239 57.3981 28.0622 85.0931 14.7697C95.0512 9.99024 106.415 15.8576 109.828 26.3626L110.979 29.9051C118.017 51.5659 150 46.5002 150 23.7248L150 20Z" fill="white"/>
<circle cx="150" cy="150" r="149" stroke="white" stroke-width="2"/>
<circle cx="150" cy="150" r="129" fill="black" stroke="white" stroke-width="2"/>
<path d="M162.73 220.297L149.298 244.672C149.006 245.202 148.199 244.959 148.247 244.357L149.72 226.199L137.762 226.199C137.336 226.199 137.064 225.742 137.27 225.367L150.703 200.992C150.995 200.462 151.802 200.705 151.753 201.307L150.281 219.465L162.238 219.465C162.665 219.465 162.935 219.922 162.73 220.297Z" fill="white"/>
</svg>
