<svg width="300" height="300" viewBox="0 0 300 300" fill="none" xmlns="http://www.w3.org/2000/svg">
<rect width="300" height="300" fill="black"/>
<circle cx="150" cy="150" r="150" fill="#181818"/>
<path d="M150 20C150 8.9543 158.994 -0.137173 169.941 1.33127C194.494 4.62455 217.959 13.9649 238.168 28.6475C263.795 47.2667 282.87 73.5209 292.658 103.647C302.447 133.774 302.447 166.226 292.658 196.353C282.87 226.479 263.795 252.733 238.168 271.353C212.541 289.972 181.677 300 150 300C118.323 300 87.4593 289.972 61.8322 271.353C36.2051 252.733 17.1302 226.479 7.34152 196.353C-0.377567 172.596 -2.0096 147.393 2.44542 123.024C4.43186 112.159 15.8576 106.414 26.3627 109.828L123.82 141.493C136.742 145.692 150 136.06 150 122.472L150 20Z" fill="#167c80"/>
<circle cx="150" cy="150" r="128" fill="black"/>
<path d="M162.73 230.297L149.298 254.672C149.006 255.202 148.199 254.959 148.247 254.357L149.72 236.199L137.762 236.199C137.336 236.199 137.064 235.742 137.27 235.367L150.703 210.992C150.995 210.462 151.802 210.705 151.753 211.307L150.281 229.465L162.238 229.465C162.665 229.465 162.935 229.922 162.73 230.297Z" fill="white"/>
</svg>
