<svg width="300" height="300" viewBox="0 0 300 300" fill="none" xmlns="http://www.w3.org/2000/svg">
<rect width="300" height="300" fill="black"/>
<path d="M150 20C150 8.9543 158.994 -0.137283 169.941 1.33108C198.42 5.15078 225.355 17.0964 247.417 35.9391C274.575 59.1345 292.566 91.2591 298.153 126.535C303.74 161.811 296.557 197.922 277.896 228.375C259.235 258.827 230.32 281.622 196.353 292.658C162.385 303.695 125.594 302.25 92.5974 288.582C59.6007 274.914 32.5635 249.921 16.349 218.099C0.134526 186.276 -4.1931 149.712 4.14452 114.983C10.9176 86.7713 25.6875 61.2748 46.4819 41.4454C54.4756 33.8226 67.0955 35.8916 73.588 44.8278L113.82 100.202C125.208 115.876 150 107.821 150 88.4463L150 20Z" fill="white"/>
<circle cx="150" cy="150" r="128" fill="black"/>
<path d="M173.183 145.483L149.249 188.918C148.729 189.862 147.29 189.429 147.377 188.355L150 156H128.693C127.932 156 127.45 155.184 127.817 154.517L151.751 111.082C152.271 110.138 153.71 110.571 153.623 111.645L151 144H172.307C173.068 144 173.55 144.816 173.183 145.483Z" fill="white"/>
</svg>
