<svg width="300" height="300" viewBox="0 0 300 300" fill="none" xmlns="http://www.w3.org/2000/svg">
<rect width="300" height="300" fill="black"/>
<circle cx="150" cy="150" r="150" fill="white"/>
<circle cx="150" cy="150" r="128" fill="black"/>
<path d="M96.2812 171H87.25V136.188L76.4688 139.531V132.188L95.3125 125.438H96.2812V171ZM141.719 152.188C141.719 158.479 140.417 163.292 137.812 166.625C135.208 169.958 131.396 171.625 126.375 171.625C121.417 171.625 117.625 169.99 115 166.719C112.375 163.448 111.031 158.76 110.969 152.656V144.281C110.969 137.927 112.281 133.104 114.906 129.812C117.552 126.521 121.354 124.875 126.312 124.875C131.271 124.875 135.062 126.51 137.688 129.781C140.312 133.031 141.656 137.708 141.719 143.812V152.188ZM132.688 143C132.688 139.229 132.167 136.49 131.125 134.781C130.104 133.052 128.5 132.188 126.312 132.188C124.188 132.188 122.615 133.01 121.594 134.656C120.594 136.281 120.062 138.833 120 142.312V153.375C120 157.083 120.5 159.844 121.5 161.656C122.521 163.448 124.146 164.344 126.375 164.344C128.583 164.344 130.177 163.479 131.156 161.75C132.135 160.021 132.646 157.375 132.688 153.812V143ZM178.469 152.188C178.469 158.479 177.167 163.292 174.562 166.625C171.958 169.958 168.146 171.625 163.125 171.625C158.167 171.625 154.375 169.99 151.75 166.719C149.125 163.448 147.781 158.76 147.719 152.656V144.281C147.719 137.927 149.031 133.104 151.656 129.812C154.302 126.521 158.104 124.875 163.062 124.875C168.021 124.875 171.812 126.51 174.438 129.781C177.062 133.031 178.406 137.708 178.469 143.812V152.188ZM169.438 143C169.438 139.229 168.917 136.49 167.875 134.781C166.854 133.052 165.25 132.188 163.062 132.188C160.938 132.188 159.365 133.01 158.344 134.656C157.344 136.281 156.812 138.833 156.75 142.312V153.375C156.75 157.083 157.25 159.844 158.25 161.656C159.271 163.448 160.896 164.344 163.125 164.344C165.333 164.344 166.927 163.479 167.906 161.75C168.885 160.021 169.396 157.375 169.438 153.812V143ZM184.469 134.25C184.469 131.458 185.375 129.198 187.188 127.469C189 125.719 191.375 124.844 194.312 124.844C197.292 124.844 199.688 125.708 201.5 127.438C203.312 129.146 204.219 131.469 204.219 134.406V136.656C204.219 139.469 203.312 141.729 201.5 143.438C199.688 145.146 197.312 146 194.375 146C191.417 146 189.021 145.146 187.188 143.438C185.375 141.708 184.469 139.385 184.469 136.469V134.25ZM190.469 136.656C190.469 137.906 190.823 138.917 191.531 139.688C192.26 140.438 193.208 140.812 194.375 140.812C195.542 140.812 196.469 140.427 197.156 139.656C197.844 138.885 198.188 137.854 198.188 136.562V134.25C198.188 133 197.844 131.99 197.156 131.219C196.469 130.448 195.521 130.062 194.312 130.062C193.167 130.062 192.24 130.448 191.531 131.219C190.823 131.969 190.469 133.021 190.469 134.375V136.656ZM206.219 159.844C206.219 157.031 207.135 154.771 208.969 153.062C210.802 151.333 213.177 150.469 216.094 150.469C219.052 150.469 221.438 151.323 223.25 153.031C225.083 154.719 226 157.052 226 160.031V162.281C226 165.073 225.104 167.333 223.312 169.062C221.521 170.771 219.135 171.625 216.156 171.625C213.156 171.625 210.75 170.76 208.938 169.031C207.125 167.302 206.219 165.01 206.219 162.156V159.844ZM212.219 162.281C212.219 163.427 212.594 164.406 213.344 165.219C214.094 166.031 215.031 166.438 216.156 166.438C218.698 166.438 219.969 165.031 219.969 162.219V159.844C219.969 158.594 219.615 157.594 218.906 156.844C218.198 156.073 217.26 155.688 216.094 155.688C214.927 155.688 213.99 156.073 213.281 156.844C212.573 157.594 212.219 158.625 212.219 159.938V162.281ZM196.156 167.594L191.75 165.219L213.969 129.656L218.375 132.031L196.156 167.594Z" fill="white"/>
</svg>
