<svg width="300" height="300" viewBox="0 0 300 300" fill="none" xmlns="http://www.w3.org/2000/svg">
<rect width="300" height="300" fill="black"/>
<circle cx="150" cy="150" r="150" fill="#181818"/>
<path d="M150 20C150 8.9543 158.993 -0.137047 169.941 1.33137C182.784 3.05407 195.379 6.4376 207.403 11.4181C225.601 18.9563 242.137 30.0052 256.066 43.934C269.995 57.8628 281.044 74.3987 288.582 92.5975C296.12 110.796 300 130.302 300 150C300 169.698 296.12 189.204 288.582 207.403C281.044 225.601 269.995 242.137 256.066 256.066C242.137 269.995 225.601 281.044 207.402 288.582C195.379 293.562 182.784 296.946 169.941 298.669C158.993 300.137 150 291.046 150 280L150 150L150 20Z" fill="#167c80"/>
<circle cx="150" cy="150" r="128" fill="black"/>
<path d="M162.73 230.297L149.298 254.672C149.006 255.202 148.199 254.959 148.247 254.357L149.72 236.199L137.762 236.199C137.336 236.199 137.064 235.742 137.27 235.367L150.703 210.992C150.995 210.462 151.802 210.705 151.753 211.307L150.281 229.465L162.238 229.465C162.665 229.465 162.935 229.922 162.73 230.297Z" fill="white"/>
</svg>
