<svg width="300" height="300" viewBox="0 0 300 300" fill="none" xmlns="http://www.w3.org/2000/svg">
<rect width="300" height="300" fill="black"/>
<circle cx="150" cy="150" r="150" fill="#181818"/>
<path d="M150 20C150 8.9543 158.994 -0.137173 169.941 1.33127C194.494 4.62455 217.959 13.9649 238.168 28.6475C258.377 43.33 274.511 62.7604 285.23 85.0935C290.01 95.0516 284.142 106.414 273.637 109.828L176.18 141.493C163.258 145.692 150 136.06 150 122.472L150 20Z" fill="#167c80"/>
<circle cx="150" cy="150" r="128" fill="black"/>
<path d="M162.73 230.297L149.298 254.672C149.006 255.202 148.199 254.959 148.247 254.357L149.72 236.199L137.762 236.199C137.336 236.199 137.064 235.742 137.27 235.367L150.703 210.992C150.995 210.462 151.802 210.705 151.753 211.307L150.281 229.465L162.238 229.465C162.665 229.465 162.935 229.922 162.73 230.297Z" fill="white"/>
</svg>
