<svg width="300" height="300" viewBox="0 0 300 300" fill="none" xmlns="http://www.w3.org/2000/svg">
<rect width="300" height="300" fill="black"/>
<circle cx="150" cy="150" r="150" fill="#181818"/>
<path d="M150 20C150 8.9543 158.994 -0.137283 169.941 1.33108C198.42 5.15078 225.355 17.0964 247.417 35.9391C274.575 59.1345 292.566 91.2591 298.153 126.535C303.74 161.811 296.557 197.922 277.896 228.375C262.737 253.113 240.811 272.797 214.906 285.23C204.948 290.01 193.585 284.142 190.172 273.637L150.979 153.013C150.33 151.017 150 148.931 150 146.832L150 20Z" fill="#167c80"/>
<circle cx="150" cy="150" r="128" fill="black"/>
<path d="M162.73 230.297L149.298 254.672C149.006 255.202 148.199 254.959 148.247 254.357L149.72 236.199L137.762 236.199C137.336 236.199 137.064 235.742 137.27 235.367L150.703 210.992C150.995 210.462 151.802 210.705 151.753 211.307L150.281 229.465L162.238 229.465C162.665 229.465 162.935 229.922 162.73 230.297Z" fill="white"/>
</svg>
