<svg width="300" height="300" viewBox="0 0 300 300" fill="none" xmlns="http://www.w3.org/2000/svg">
<rect width="300" height="300" fill="black"/>
<circle cx="150" cy="150" r="150" fill="#181818"/>
<path d="M150 20C150 8.9543 158.993 -0.137085 169.941 1.33136C188.629 3.83801 206.738 9.85427 223.293 19.1256C245.686 31.666 264.486 49.7423 277.896 71.6252C291.306 93.5082 298.877 118.466 299.884 144.111C300.892 169.756 295.303 195.231 283.651 218.099C271.999 240.966 254.675 260.462 233.336 274.72C211.996 288.979 187.355 297.524 161.769 299.538C136.183 301.551 110.509 296.966 87.2011 286.221C69.9695 278.278 54.458 267.163 41.4457 253.518C33.8228 245.524 35.8917 232.905 44.8278 226.412L141.756 155.99C146.935 152.227 150 146.212 150 139.809L150 20Z" fill="#167c80"/>
<circle cx="150" cy="150" r="128" fill="black"/>
<path d="M162.73 230.297L149.298 254.672C149.006 255.202 148.199 254.959 148.247 254.357L149.72 236.199L137.762 236.199C137.336 236.199 137.064 235.742 137.27 235.367L150.703 210.992C150.995 210.462 151.802 210.705 151.753 211.307L150.281 229.465L162.238 229.465C162.665 229.465 162.935 229.922 162.73 230.297Z" fill="white"/>
</svg>
