<svg width="300" height="300" viewBox="0 0 300 300" fill="none" xmlns="http://www.w3.org/2000/svg">
<rect width="300" height="300" fill="black"/>
<path d="M150 20C150 8.9543 158.994 -0.137173 169.941 1.33127C194.494 4.62455 217.959 13.9649 238.168 28.6475C263.795 47.2667 282.87 73.5209 292.658 103.647C302.447 133.774 302.447 166.226 292.658 196.353C282.87 226.479 263.795 252.733 238.168 271.353C212.541 289.972 181.677 300 150 300C118.323 300 87.4593 289.972 61.8322 271.353C36.2051 252.733 17.1302 226.479 7.34152 196.353C-0.377567 172.596 -2.0096 147.393 2.44542 123.024C4.43186 112.159 15.8576 106.414 26.3627 109.828L123.82 141.493C136.742 145.692 150 136.06 150 122.472L150 20Z" fill="white"/>
<circle cx="150" cy="150" r="128" fill="black"/>
<path d="M173.183 145.483L149.249 188.918C148.729 189.862 147.29 189.429 147.377 188.355L150 156H128.693C127.932 156 127.45 155.184 127.817 154.517L151.751 111.082C152.271 110.138 153.71 110.571 153.623 111.645L151 144H172.307C173.068 144 173.55 144.816 173.183 145.483Z" fill="white"/>
</svg>
