<svg width="300" height="300" viewBox="0 0 300 300" fill="none" xmlns="http://www.w3.org/2000/svg">
<rect width="300" height="300" fill="black"/>
<path d="M150 20C150 8.9543 158.994 -0.137312 169.942 1.33104C200.389 5.41475 229.026 18.7812 251.82 39.8516C279.537 65.4731 296.576 100.602 299.538 138.231C302.499 175.86 291.165 213.222 267.798 242.864C244.43 272.506 210.746 292.249 173.465 298.153C136.185 304.058 98.0484 295.691 66.6644 274.72C35.2804 253.75 12.9559 221.719 4.1445 185.017C-4.66693 148.314 0.682508 109.639 19.1256 76.7068C34.2927 49.6239 57.3981 28.0622 85.0931 14.7697C95.0512 9.99024 106.415 15.8576 109.828 26.3626L110.979 29.9051C118.017 51.5659 150 46.5002 150 23.7248L150 20Z" fill="white"/>
<circle cx="150" cy="150" r="128" fill="black"/>
<path d="M173.183 145.483L149.249 188.918C148.729 189.862 147.29 189.429 147.377 188.355L150 156H128.693C127.932 156 127.45 155.184 127.817 154.517L151.751 111.082C152.271 110.138 153.71 110.571 153.623 111.645L151 144H172.307C173.068 144 173.55 144.816 173.183 145.483Z" fill="white"/>
</svg>
