<svg width="300" height="300" viewBox="0 0 300 300" fill="none" xmlns="http://www.w3.org/2000/svg">
<rect width="300" height="300" fill="black"/>
<path d="M150 20C150 8.9543 158.994 -0.13721 169.942 1.33122C196.455 4.88752 221.666 15.4912 242.864 32.2025C269.324 53.0615 287.99 82.2213 295.855 114.983C303.721 147.745 300.327 182.201 286.221 212.799C272.116 243.397 248.119 268.355 218.099 283.651C188.078 298.947 153.782 303.691 120.736 297.118C87.691 290.545 57.8208 273.037 35.9391 247.417C14.0573 221.797 1.43841 189.556 0.115643 155.889C-0.944093 128.917 5.29598 102.288 18.0031 78.7477C23.25 69.0277 35.8917 67.0954 44.8278 73.5879L118.244 126.928C131.465 136.533 150 127.089 150 110.748L150 20Z" fill="white"/>
<circle cx="150" cy="150" r="128" fill="black"/>
<path d="M173.183 145.483L149.249 188.918C148.729 189.862 147.29 189.429 147.377 188.355L150 156H128.693C127.932 156 127.45 155.184 127.817 154.517L151.751 111.082C152.271 110.138 153.71 110.571 153.623 111.645L151 144H172.307C173.068 144 173.55 144.816 173.183 145.483Z" fill="white"/>
</svg>
