<svg width="300" height="300" viewBox="0 0 300 300" fill="none" xmlns="http://www.w3.org/2000/svg">
<rect width="300" height="300" fill="black"/>
<path d="M150 20C150 8.9543 158.994 -0.137109 169.941 1.33134C190.581 4.09984 210.494 11.1469 228.375 22.104C251.962 36.558 271.092 57.2532 283.651 81.9014C296.21 106.55 301.708 134.191 299.538 161.769C297.367 189.347 287.613 215.788 271.353 238.168C255.092 260.548 232.96 277.996 207.403 288.582C181.845 299.168 153.858 302.481 126.535 298.153C99.2121 293.826 73.6182 282.027 52.5828 264.061C36.6366 250.442 23.781 233.681 14.7699 214.906C9.99029 204.948 15.8576 193.586 26.3627 190.172L136.18 154.49C144.421 151.813 150 144.134 150 135.469L150 20Z" fill="white"/>
<circle cx="150" cy="150" r="128" fill="black"/>
<path d="M173.183 145.483L149.249 188.918C148.729 189.862 147.29 189.429 147.377 188.355L150 156H128.693C127.932 156 127.45 155.184 127.817 154.517L151.751 111.082C152.271 110.138 153.71 110.571 153.623 111.645L151 144H172.307C173.068 144 173.55 144.816 173.183 145.483Z" fill="white"/>
</svg>
