<svg width="300" height="300" viewBox="0 0 300 300" fill="none" xmlns="http://www.w3.org/2000/svg">
<rect width="300" height="300" fill="black"/>
<path d="M150 20C150 8.9543 158.993 -0.137072 169.941 1.33136C186.679 3.57645 202.966 8.63872 218.099 16.349C239.19 27.0957 257.439 42.6815 271.353 61.8322C285.266 80.9829 294.45 103.155 298.153 126.535C301.856 149.915 299.973 173.84 292.658 196.353C285.344 218.866 272.804 239.328 256.066 256.066C239.328 272.804 218.866 285.344 196.353 292.658C173.84 299.973 149.915 301.856 126.535 298.153C109.761 295.496 93.6083 290.018 78.7474 281.997C69.0275 276.75 67.0955 264.108 73.588 255.172L146.18 155.257C148.663 151.84 150 147.725 150 143.502L150 20Z" fill="white"/>
<circle cx="150" cy="150" r="149" stroke="white" stroke-width="2"/>
<circle cx="150" cy="150" r="129" fill="black" stroke="white" stroke-width="2"/>
<path d="M162.73 220.297L149.298 244.672C149.006 245.202 148.199 244.959 148.247 244.357L149.72 226.199L137.762 226.199C137.336 226.199 137.064 225.742 137.27 225.367L150.703 200.992C150.995 200.462 151.802 200.705 151.753 201.307L150.281 219.465L162.238 219.465C162.665 219.465 162.935 219.922 162.73 220.297Z" fill="white"/>
</svg>
