<svg width="300" height="300" viewBox="0 0 300 300" fill="none" xmlns="http://www.w3.org/2000/svg">
<rect width="300" height="300" fill="black"/>
<path d="M150 20C150 8.9543 158.993 -0.137047 169.941 1.33137C182.784 3.05407 195.379 6.4376 207.403 11.4181C225.601 18.9563 242.137 30.0052 256.066 43.934C269.995 57.8628 281.044 74.3987 288.582 92.5975C296.12 110.796 300 130.302 300 150C300 169.698 296.12 189.204 288.582 207.403C281.044 225.601 269.995 242.137 256.066 256.066C242.137 269.995 225.601 281.044 207.402 288.582C195.379 293.562 182.784 296.946 169.941 298.669C158.993 300.137 150 291.046 150 280L150 150L150 20Z" fill="white"/>
<circle cx="150" cy="150" r="128" fill="black"/>
<path d="M173.183 145.483L149.249 188.918C148.729 189.862 147.29 189.429 147.377 188.355L150 156H128.693C127.932 156 127.45 155.184 127.817 154.517L151.751 111.082C152.271 110.138 153.71 110.571 153.623 111.645L151 144H172.307C173.068 144 173.55 144.816 173.183 145.483Z" fill="white"/>
</svg>
