<svg width="300" height="300" viewBox="0 0 300 300" fill="none" xmlns="http://www.w3.org/2000/svg">
<rect width="300" height="300" fill="black"/>
<path d="M150 20C150 8.9543 158.994 -0.137139 169.941 1.33131C192.536 4.36201 214.235 12.5169 233.336 25.2796C258.003 41.7618 277.229 65.1886 288.582 92.5975C299.935 120.006 302.906 150.166 297.118 179.264C291.33 208.361 277.044 235.088 256.066 256.066C235.088 277.044 208.361 291.33 179.264 297.118C150.166 302.906 120.006 299.935 92.5975 288.582C65.1886 277.229 41.7618 258.003 25.2796 233.336C12.5169 214.235 4.36201 192.536 1.33131 169.941C-0.137139 158.994 8.95431 150 20 150L130 150C141.046 150 150 141.046 150 130L150 20Z" fill="white"/>
<circle cx="150" cy="150" r="128" fill="black"/>
<path d="M173.183 145.483L149.249 188.918C148.729 189.862 147.29 189.429 147.377 188.355L150 156H128.693C127.932 156 127.45 155.184 127.817 154.517L151.751 111.082C152.271 110.138 153.71 110.571 153.623 111.645L151 144H172.307C173.068 144 173.55 144.816 173.183 145.483Z" fill="white"/>
</svg>
