<svg width="300" height="300" viewBox="0 0 300 300" fill="none" xmlns="http://www.w3.org/2000/svg">
<rect width="300" height="300" fill="black"/>
<path d="M150 20C150 8.9543 158.994 -0.137109 169.941 1.33134C190.581 4.09984 210.494 11.1469 228.375 22.104C251.962 36.558 271.092 57.2532 283.651 81.9014C296.21 106.55 301.708 134.191 299.538 161.769C297.892 182.675 291.889 202.927 281.997 221.252C276.75 230.972 264.108 232.905 255.172 226.412L158.244 155.99C153.065 152.227 150 146.212 150 139.809L150 20Z" fill="white"/>
<circle cx="150" cy="150" r="128" fill="black"/>
<path d="M173.183 145.483L149.249 188.918C148.729 189.862 147.29 189.429 147.377 188.355L150 156H128.693C127.932 156 127.45 155.184 127.817 154.517L151.751 111.082C152.271 110.138 153.71 110.571 153.623 111.645L151 144H172.307C173.068 144 173.55 144.816 173.183 145.483Z" fill="white"/>
</svg>
