<svg width="300" height="300" viewBox="0 0 300 300" fill="none" xmlns="http://www.w3.org/2000/svg">
<rect width="300" height="300" fill="black"/>
<path d="M150 20C150 8.9543 158.993 -0.137072 169.941 1.33136C186.679 3.57645 202.966 8.63872 218.099 16.349C239.19 27.0957 257.439 42.6815 271.353 61.8322C285.266 80.9829 294.45 103.155 298.153 126.535C301.856 149.915 299.973 173.84 292.658 196.353C285.344 218.866 272.804 239.328 256.066 256.066C239.328 272.804 218.866 285.344 196.353 292.658C173.84 299.973 149.915 301.856 126.535 298.153C109.761 295.496 93.6083 290.018 78.7474 281.997C69.0275 276.75 67.0955 264.108 73.588 255.172L146.18 155.257C148.663 151.84 150 147.725 150 143.502L150 20Z" fill="white"/>
<circle cx="150" cy="150" r="128" fill="black"/>
<path d="M173.183 145.483L149.249 188.918C148.729 189.862 147.29 189.429 147.377 188.355L150 156H128.693C127.932 156 127.45 155.184 127.817 154.517L151.751 111.082C152.271 110.138 153.71 110.571 153.623 111.645L151 144H172.307C173.068 144 173.55 144.816 173.183 145.483Z" fill="white"/>
</svg>
