<svg width="300" height="300" viewBox="0 0 300 300" fill="none" xmlns="http://www.w3.org/2000/svg">
<rect width="300" height="300" fill="black"/>
<path d="M150 20C150 8.9543 158.994 -0.137173 169.941 1.33127C194.494 4.62455 217.959 13.9649 238.168 28.6475C263.795 47.2667 282.87 73.5209 292.658 103.647C302.447 133.774 302.447 166.226 292.658 196.353C284.939 220.109 271.446 241.458 253.518 258.554C245.524 266.177 232.905 264.108 226.412 255.172L153.82 155.257C151.337 151.84 150 147.725 150 143.502L150 20Z" fill="white"/>
<circle cx="150" cy="150" r="149" stroke="white" stroke-width="2"/>
<circle cx="150" cy="150" r="129" fill="black" stroke="white" stroke-width="2"/>
<path d="M162.73 220.297L149.298 244.672C149.006 245.202 148.199 244.959 148.247 244.357L149.72 226.199L137.762 226.199C137.336 226.199 137.064 225.742 137.27 225.367L150.703 200.992C150.995 200.462 151.802 200.705 151.753 201.307L150.281 219.465L162.238 219.465C162.665 219.465 162.935 219.922 162.73 220.297Z" fill="white"/>
</svg>
