<svg width="300" height="300" viewBox="0 0 300 300" fill="none" xmlns="http://www.w3.org/2000/svg">
<rect width="300" height="300" fill="black"/>
<circle cx="150" cy="150" r="150" fill="#181818"/>
<path d="M150 20C150 8.9543 158.994 -0.137139 169.941 1.33131C192.536 4.36201 214.235 12.5169 233.336 25.2796C258.003 41.7618 277.229 65.1886 288.582 92.5975C299.935 120.006 302.906 150.166 297.118 179.264C291.33 208.361 277.044 235.088 256.066 256.066C235.088 277.044 208.361 291.33 179.264 297.118C150.166 302.906 120.006 299.935 92.5975 288.582C65.1886 277.229 41.7618 258.003 25.2796 233.336C12.5169 214.235 4.36201 192.536 1.33131 169.941C-0.137139 158.994 8.95431 150 20 150L130 150C141.046 150 150 141.046 150 130L150 20Z" fill="#167c80"/>
<circle cx="150" cy="150" r="128" fill="black"/>
<path d="M162.73 230.297L149.298 254.672C149.006 255.202 148.199 254.959 148.247 254.357L149.72 236.199L137.762 236.199C137.336 236.199 137.064 235.742 137.27 235.367L150.703 210.992C150.995 210.462 151.802 210.705 151.753 211.307L150.281 229.465L162.238 229.465C162.665 229.465 162.935 229.922 162.73 230.297Z" fill="white"/>
</svg>
