<svg width="300" height="300" viewBox="0 0 300 300" fill="none" xmlns="http://www.w3.org/2000/svg">
<rect width="300" height="300" fill="black"/>
<path d="M150 20C150 8.9543 158.994 -0.137283 169.941 1.33108C198.42 5.15078 225.355 17.0964 247.417 35.9391C274.575 59.1345 292.566 91.2591 298.153 126.535C303.74 161.811 296.557 197.922 277.896 228.375C262.737 253.113 240.811 272.797 214.906 285.23C204.948 290.01 193.585 284.142 190.172 273.637L150.979 153.013C150.33 151.017 150 148.931 150 146.832L150 20Z" fill="white"/>
<circle cx="150" cy="150" r="149" stroke="white" stroke-width="2"/>
<circle cx="150" cy="150" r="129" fill="black" stroke="white" stroke-width="2"/>
<path d="M162.73 220.297L149.298 244.672C149.006 245.202 148.199 244.959 148.247 244.357L149.72 226.199L137.762 226.199C137.336 226.199 137.064 225.742 137.27 225.367L150.703 200.992C150.995 200.462 151.802 200.705 151.753 201.307L150.281 219.465L162.238 219.465C162.665 219.465 162.935 219.922 162.73 220.297Z" fill="white"/>
</svg>
