<svg width="300" height="300" viewBox="0 0 300 300" fill="none" xmlns="http://www.w3.org/2000/svg">
<rect width="300" height="300" fill="black"/>
<path d="M150 20C150 8.9543 158.993 -0.137056 169.941 1.33137C184.731 3.31516 199.18 7.49993 212.799 13.7785C232.49 22.8562 249.979 36.095 264.061 52.5828C278.143 69.0705 288.483 88.4152 294.368 109.284C300.254 130.153 301.545 152.049 298.153 173.465C294.761 194.881 286.767 215.307 274.72 233.335C262.674 251.364 246.862 266.567 228.375 277.896C209.887 289.225 189.163 296.412 167.631 298.96C152.738 300.723 137.703 300.238 123.024 297.554C112.158 295.568 106.415 284.142 109.828 273.637L149.021 153.013C149.67 151.017 150 148.931 150 146.832L150 20Z" fill="white"/>
<circle cx="150" cy="150" r="128" fill="black"/>
<path d="M173.183 145.483L149.249 188.918C148.729 189.862 147.29 189.429 147.377 188.355L150 156H128.693C127.932 156 127.45 155.184 127.817 154.517L151.751 111.082C152.271 110.138 153.71 110.571 153.623 111.645L151 144H172.307C173.068 144 173.55 144.816 173.183 145.483Z" fill="white"/>
</svg>
